<svg width="246" height="86" viewBox="0 0 246 86" fill="none" xmlns="http://www.w3.org/2000/svg">
<rect x="214" y="54" width="6" height="6" transform="rotate(-180 214 54)" fill="#EFEFEF"/>
<rect x="150" y="54" width="6" height="6" transform="rotate(-180 150 54)" fill="#EFEFEF"/>
<rect x="54" y="54" width="6" height="6" transform="rotate(-180 54 54)" fill="#EFEFEF"/>
<rect x="214" y="86" width="6" height="6" transform="rotate(-180 214 86)" fill="#EFEFEF"/>
<rect x="214" y="22" width="6" height="6" transform="rotate(-180 214 22)" fill="#EFEFEF"/>
<rect x="150" y="86" width="6" height="6" transform="rotate(-180 150 86)" fill="#EFEFEF"/>
<rect x="54" y="86" width="6" height="6" transform="rotate(-180 54 86)" fill="#EFEFEF"/>
<rect x="150" y="22" width="6" height="6" transform="rotate(-180 150 22)" fill="#EFEFEF"/>
<rect x="54" y="22" width="6" height="6" transform="rotate(-180 54 22)" fill="#EFEFEF"/>
<rect x="182" y="54" width="6" height="6" transform="rotate(-180 182 54)" fill="#EFEFEF"/>
<rect x="86" y="54" width="6" height="6" transform="rotate(-180 86 54)" fill="#EFEFEF"/>
<rect x="246" y="54" width="6" height="6" transform="rotate(-180 246 54)" fill="#EFEFEF"/>
<rect x="118" y="54" width="6" height="6" transform="rotate(-180 118 54)" fill="#EFEFEF"/>
<rect x="22" y="54" width="6" height="6" transform="rotate(-180 22 54)" fill="#EFEFEF"/>
<rect x="182" y="86" width="6" height="6" transform="rotate(-180 182 86)" fill="#EFEFEF"/>
<rect x="86" y="86" width="6" height="6" transform="rotate(-180 86 86)" fill="#EFEFEF"/>
<rect x="182" y="22" width="6" height="6" transform="rotate(-180 182 22)" fill="#EFEFEF"/>
<rect x="86" y="22" width="6" height="6" transform="rotate(-180 86 22)" fill="#EFEFEF"/>
<rect x="246" y="86" width="6" height="6" transform="rotate(-180 246 86)" fill="#EFEFEF"/>
<rect x="246" y="22" width="6" height="6" transform="rotate(-180 246 22)" fill="#EFEFEF"/>
<rect x="118" y="86" width="6" height="6" transform="rotate(-180 118 86)" fill="#EFEFEF"/>
<rect x="22" y="86" width="6" height="6" transform="rotate(-180 22 86)" fill="#EFEFEF"/>
<rect x="118" y="22" width="6" height="6" transform="rotate(-180 118 22)" fill="#EFEFEF"/>
<rect x="22" y="22" width="6" height="6" transform="rotate(-180 22 22)" fill="#EFEFEF"/>
<rect x="214" y="38" width="6" height="6" transform="rotate(-180 214 38)" fill="#EFEFEF"/>
<rect x="150" y="38" width="6" height="6" transform="rotate(-180 150 38)" fill="#EFEFEF"/>
<rect x="54" y="38" width="6" height="6" transform="rotate(-180 54 38)" fill="#EFEFEF"/>
<rect x="214" y="70" width="6" height="6" transform="rotate(-180 214 70)" fill="#EFEFEF"/>
<rect x="214" y="6" width="6" height="6" transform="rotate(-180 214 6)" fill="#EFEFEF"/>
<rect x="150" y="70" width="6" height="6" transform="rotate(-180 150 70)" fill="#EFEFEF"/>
<rect x="54" y="70" width="6" height="6" transform="rotate(-180 54 70)" fill="#EFEFEF"/>
<rect x="150" y="6" width="6" height="6" transform="rotate(-180 150 6)" fill="#EFEFEF"/>
<rect x="54" y="6" width="6" height="6" transform="rotate(-180 54 6)" fill="#EFEFEF"/>
<rect x="182" y="38" width="6" height="6" transform="rotate(-180 182 38)" fill="#EFEFEF"/>
<rect x="86" y="38" width="6" height="6" transform="rotate(-180 86 38)" fill="#EFEFEF"/>
<rect x="246" y="38" width="6" height="6" transform="rotate(-180 246 38)" fill="#EFEFEF"/>
<rect x="118" y="38" width="6" height="6" transform="rotate(-180 118 38)" fill="#EFEFEF"/>
<rect x="22" y="38" width="6" height="6" transform="rotate(-180 22 38)" fill="#EFEFEF"/>
<rect x="182" y="70" width="6" height="6" transform="rotate(-180 182 70)" fill="#EFEFEF"/>
<rect x="86" y="70" width="6" height="6" transform="rotate(-180 86 70)" fill="#EFEFEF"/>
<rect x="182" y="6" width="6" height="6" transform="rotate(-180 182 6)" fill="#EFEFEF"/>
<rect x="86" y="6" width="6" height="6" transform="rotate(-180 86 6)" fill="#EFEFEF"/>
<rect x="246" y="70" width="6" height="6" transform="rotate(-180 246 70)" fill="#EFEFEF"/>
<rect x="246" y="6" width="6" height="6" transform="rotate(-180 246 6)" fill="#EFEFEF"/>
<rect x="118" y="70" width="6" height="6" transform="rotate(-180 118 70)" fill="#EFEFEF"/>
<rect x="22" y="70" width="6" height="6" transform="rotate(-180 22 70)" fill="#EFEFEF"/>
<rect x="118" y="6" width="6" height="6" transform="rotate(-180 118 6)" fill="#EFEFEF"/>
<rect x="22" y="6" width="6" height="6" transform="rotate(-180 22 6)" fill="#EFEFEF"/>
<rect x="198" y="54" width="6" height="6" transform="rotate(-180 198 54)" fill="#EFEFEF"/>
<rect x="134" y="54" width="6" height="6" transform="rotate(-180 134 54)" fill="#EFEFEF"/>
<rect x="38" y="54" width="6" height="6" transform="rotate(-180 38 54)" fill="#EFEFEF"/>
<rect x="198" y="86" width="6" height="6" transform="rotate(-180 198 86)" fill="#EFEFEF"/>
<rect x="198" y="22" width="6" height="6" transform="rotate(-180 198 22)" fill="#EFEFEF"/>
<rect x="134" y="86" width="6" height="6" transform="rotate(-180 134 86)" fill="#EFEFEF"/>
<rect x="38" y="86" width="6" height="6" transform="rotate(-180 38 86)" fill="#EFEFEF"/>
<rect x="134" y="22" width="6" height="6" transform="rotate(-180 134 22)" fill="#EFEFEF"/>
<rect x="38" y="22" width="6" height="6" transform="rotate(-180 38 22)" fill="#EFEFEF"/>
<rect x="166" y="54" width="6" height="6" transform="rotate(-180 166 54)" fill="#EFEFEF"/>
<rect x="70" y="54" width="6" height="6" transform="rotate(-180 70 54)" fill="#EFEFEF"/>
<rect x="230" y="54" width="6" height="6" transform="rotate(-180 230 54)" fill="#EFEFEF"/>
<rect x="102" y="54" width="6" height="6" transform="rotate(-180 102 54)" fill="#EFEFEF"/>
<rect x="6" y="54" width="6" height="6" transform="rotate(-180 6 54)" fill="#EFEFEF"/>
<rect x="166" y="86" width="6" height="6" transform="rotate(-180 166 86)" fill="#EFEFEF"/>
<rect x="70" y="86" width="6" height="6" transform="rotate(-180 70 86)" fill="#EFEFEF"/>
<rect x="166" y="22" width="6" height="6" transform="rotate(-180 166 22)" fill="#EFEFEF"/>
<rect x="70" y="22" width="6" height="6" transform="rotate(-180 70 22)" fill="#EFEFEF"/>
<rect x="230" y="86" width="6" height="6" transform="rotate(-180 230 86)" fill="#EFEFEF"/>
<rect x="230" y="22" width="6" height="6" transform="rotate(-180 230 22)" fill="#EFEFEF"/>
<rect x="102" y="86" width="6" height="6" transform="rotate(-180 102 86)" fill="#EFEFEF"/>
<rect x="6" y="86" width="6" height="6" transform="rotate(-180 6 86)" fill="#EFEFEF"/>
<rect x="102" y="22" width="6" height="6" transform="rotate(-180 102 22)" fill="#EFEFEF"/>
<rect x="6" y="22" width="6" height="6" transform="rotate(-180 6 22)" fill="#EFEFEF"/>
<rect x="198" y="38" width="6" height="6" transform="rotate(-180 198 38)" fill="#EFEFEF"/>
<rect x="134" y="38" width="6" height="6" transform="rotate(-180 134 38)" fill="#EFEFEF"/>
<rect x="38" y="38" width="6" height="6" transform="rotate(-180 38 38)" fill="#EFEFEF"/>
<rect x="198" y="70" width="6" height="6" transform="rotate(-180 198 70)" fill="#EFEFEF"/>
<rect x="198" y="6" width="6" height="6" transform="rotate(-180 198 6)" fill="#EFEFEF"/>
<rect x="134" y="70" width="6" height="6" transform="rotate(-180 134 70)" fill="#EFEFEF"/>
<rect x="38" y="70" width="6" height="6" transform="rotate(-180 38 70)" fill="#EFEFEF"/>
<rect x="134" y="6" width="6" height="6" transform="rotate(-180 134 6)" fill="#EFEFEF"/>
<rect x="38" y="6" width="6" height="6" transform="rotate(-180 38 6)" fill="#EFEFEF"/>
<rect x="166" y="38" width="6" height="6" transform="rotate(-180 166 38)" fill="#EFEFEF"/>
<rect x="70" y="38" width="6" height="6" transform="rotate(-180 70 38)" fill="#EFEFEF"/>
<rect x="230" y="38" width="6" height="6" transform="rotate(-180 230 38)" fill="#EFEFEF"/>
<rect x="102" y="38" width="6" height="6" transform="rotate(-180 102 38)" fill="#EFEFEF"/>
<rect x="6" y="38" width="6" height="6" transform="rotate(-180 6 38)" fill="#EFEFEF"/>
<rect x="166" y="70" width="6" height="6" transform="rotate(-180 166 70)" fill="#EFEFEF"/>
<rect x="70" y="70" width="6" height="6" transform="rotate(-180 70 70)" fill="#EFEFEF"/>
<rect x="166" y="6" width="6" height="6" transform="rotate(-180 166 6)" fill="#EFEFEF"/>
<rect x="70" y="6" width="6" height="6" transform="rotate(-180 70 6)" fill="#EFEFEF"/>
<rect x="230" y="70" width="6" height="6" transform="rotate(-180 230 70)" fill="#EFEFEF"/>
<rect x="230" y="6" width="6" height="6" transform="rotate(-180 230 6)" fill="#EFEFEF"/>
<rect x="102" y="70" width="6" height="6" transform="rotate(-180 102 70)" fill="#EFEFEF"/>
<rect x="6" y="70" width="6" height="6" transform="rotate(-180 6 70)" fill="#EFEFEF"/>
<rect x="102" y="6" width="6" height="6" transform="rotate(-180 102 6)" fill="#EFEFEF"/>
<rect x="6" y="6" width="6" height="6" transform="rotate(-180 6 6)" fill="#EFEFEF"/>
</svg>
