<svg width="16" height="20" viewBox="0 0 16 20" fill="none" xmlns="http://www.w3.org/2000/svg">
<path d="M15.9422 17.3481L14.1006 6.29844C14.0637 6.11428 13.9164 6.00378 13.7322 6.00378H2.68259C2.49843 6.00378 2.3511 6.15111 2.31427 6.29844L0.472656 17.3481C0.472656 17.3849 0.472656 17.3849 0.472656 17.4218C0.472656 18.8582 1.61445 20 3.05091 20H13.3639C14.8004 20 15.9422 18.8582 15.9422 17.4218C15.9422 17.3849 15.9422 17.3849 15.9422 17.3481ZM13.3639 19.2634H3.05091C2.05644 19.2634 1.2093 18.4531 1.2093 17.4586L2.97724 6.74043H13.4007L15.2055 17.4586C15.2055 18.4531 14.3584 19.2634 13.3639 19.2634Z" fill="#192734"/>
<path d="M4.89241 4.05154C4.89241 2.20993 6.36569 0.736644 8.2073 0.736644C10.0489 0.736644 11.5222 2.20993 11.5222 4.05154V4.89868H12.2588V4.05154C12.2588 1.80478 10.4541 0 8.2073 0C5.96054 0 4.15576 1.80478 4.15576 4.05154V4.89868H4.89241V4.05154Z" fill="#192734"/>
<path d="M10.4173 8.95032H5.99747C5.77648 8.95032 5.62915 9.09765 5.62915 9.31864C5.62915 9.53963 5.77648 9.68696 5.99747 9.68696H10.4173C10.6383 9.68696 10.7857 9.53963 10.7857 9.31864C10.7857 9.09765 10.6383 8.95032 10.4173 8.95032Z" fill="#192734"/>
</svg>
