<svg width="20" height="21" viewBox="0 0 20 21" fill="none" xmlns="http://www.w3.org/2000/svg">
<path d="M8.3017 16.6743C3.72387 16.6743 0 12.9342 0 8.33716C0 3.73978 3.72422 0 8.3017 0C12.8792 0 16.6034 3.74013 16.6034 8.33716C16.6034 12.9345 12.8792 16.6743 8.3017 16.6743ZM8.3017 0.70066C4.10864 0.70066 0.69768 4.12654 0.69768 8.33716C0.69768 12.5478 4.10864 15.9737 8.3017 15.9737C12.4948 15.9737 15.9057 12.5481 15.9057 8.33716C15.9057 4.12619 12.4944 0.70066 8.3017 0.70066Z" fill="#192734"/>
<path d="M18.657 20.0854C18.5677 20.0854 18.4784 20.0511 18.4104 19.9828L13.1912 14.7408C13.0548 14.6038 13.0548 14.3823 13.1912 14.2453C13.3276 14.1083 13.548 14.1083 13.6844 14.2453L18.9033 19.4874C19.0397 19.6244 19.0397 19.8458 18.9033 19.9828C18.8353 20.0515 18.7463 20.0854 18.657 20.0854Z" fill="#192734"/>
</svg>
