<svg width="19" height="20" viewBox="0 0 19 20" fill="none" xmlns="http://www.w3.org/2000/svg">
<path d="M8.06879 15.9764C3.61939 15.9764 0 12.3928 0 7.98821C0 3.58325 3.61973 0 8.06879 0C12.5178 0 16.1376 3.58358 16.1376 7.98821C16.1376 12.3932 12.5178 15.9764 8.06879 15.9764ZM8.06879 0.671335C3.99337 0.671335 0.678106 3.95383 0.678106 7.98821C0.678106 12.0226 3.99337 15.3051 8.06879 15.3051C12.1442 15.3051 15.4595 12.0229 15.4595 7.98821C15.4595 3.95349 12.1439 0.671335 8.06879 0.671335Z" fill="white"/>
<path d="M18.1336 19.2465C18.0468 19.2465 17.96 19.2136 17.8939 19.1482L12.8211 14.1241C12.6885 13.9928 12.6885 13.7806 12.8211 13.6493C12.9537 13.518 13.168 13.518 13.3005 13.6493L18.373 18.6733C18.5056 18.8046 18.5056 19.0168 18.373 19.1482C18.3069 19.214 18.2204 19.2465 18.1336 19.2465Z" fill="white"/>
</svg>
