<svg width="20" height="17" viewBox="0 0 20 17" fill="none" xmlns="http://www.w3.org/2000/svg">
<path d="M14.6816 0.469775C12.415 0.469775 10.6928 1.54573 10 2.81592C9.31046 1.54882 7.58496 0.469775 5.31838 0.469775C4.62757 0.45502 3.94054 0.56908 3.29744 0.805289C2.65434 1.0415 2.06808 1.39512 1.57292 1.84548C1.07775 2.29585 0.683619 2.83392 0.413549 3.42826C0.143479 4.0226 0.00289161 4.66128 2.91521e-06 5.30697C-0.00329633 7.78877 2.79446 10.4124 5.05114 12.4996C6.516 13.8684 8.87826 16.045 9.5744 16.6893L9.76905 16.8681C9.79961 16.8973 9.83605 16.9204 9.87626 16.9363C9.91647 16.9522 9.95965 16.9605 10.0033 16.9606C10.0467 16.9609 10.0898 16.9531 10.13 16.9377C10.1702 16.9224 10.2067 16.8998 10.2375 16.8712L10.4355 16.6893C11.1316 16.045 13.4939 13.8684 14.9588 12.4996C17.2055 10.4124 20.0033 7.78877 20 5.30697C19.9971 4.66128 19.8565 4.0226 19.5865 3.42826C19.3164 2.83392 18.9222 2.29585 18.4271 1.84548C17.9319 1.39512 17.3457 1.0415 16.7026 0.805289C16.0595 0.56908 15.3724 0.45502 14.6816 0.469775ZM14.4903 12.0649C13.0485 13.4121 10.7357 15.5455 10 16.2207C9.26427 15.5425 6.9515 13.4121 5.50973 12.0649C3.34873 10.0455 0.656552 7.53288 0.659851 5.30697C0.663612 4.74248 0.787728 4.18434 1.02495 3.66518C1.26216 3.14602 1.60773 2.67625 2.04144 2.2833C2.47516 1.89036 2.98833 1.58212 3.55098 1.37661C4.11363 1.1711 4.71446 1.07243 5.31838 1.08637C7.8357 1.08637 9.63049 2.62786 9.67008 3.98437C9.67008 4.06614 9.70484 4.14455 9.76671 4.20237C9.82858 4.26019 9.9125 4.29267 10 4.29267C10.0875 4.29267 10.1714 4.26019 10.2333 4.20237C10.2952 4.14455 10.3299 4.06614 10.3299 3.98437C10.3695 2.61244 12.1643 1.08637 14.6816 1.08637C15.2855 1.07243 15.8864 1.1711 16.449 1.37661C17.0117 1.58212 17.5248 1.89036 17.9586 2.2833C18.3923 2.67625 18.7378 3.14602 18.9751 3.66518C19.2123 4.18434 19.3364 4.74248 19.3401 5.30697C19.3434 7.53288 16.6513 10.0455 14.4903 12.0649Z" fill="#192734"/>
</svg>
