<svg width="21" height="18" viewBox="0 0 21 18" fill="none" xmlns="http://www.w3.org/2000/svg">
<path d="M15.1543 0.00138485C12.8877 0.00138485 11.1655 1.17572 10.4727 2.56204C9.78312 1.17908 8.05761 0.00138485 5.79103 0.00138485C5.10022 -0.0147193 4.41319 0.109769 3.7701 0.367576C3.127 0.625382 2.54074 1.01133 2.04557 1.50287C1.55041 1.99442 1.15627 2.58169 0.886205 3.23036C0.616135 3.87904 0.475548 4.57612 0.472659 5.28084C0.46936 7.98955 3.26712 10.853 5.5238 13.1311C6.98866 14.625 9.35091 17.0006 10.0471 17.7039L10.2417 17.8991C10.2723 17.9308 10.3087 17.9561 10.3489 17.9735C10.3891 17.9908 10.4323 17.9998 10.476 18C10.5194 18.0003 10.5624 17.9918 10.6026 17.975C10.6428 17.9583 10.6794 17.9336 10.7102 17.9024L10.9082 17.7039C11.6043 17.0006 13.9666 14.625 15.4314 13.1311C17.6782 10.853 20.476 7.98955 20.4727 5.28084C20.4698 4.57612 20.3292 3.87904 20.0591 3.23036C19.789 2.58169 19.3949 1.99442 18.8997 1.50287C18.4046 1.01133 17.8183 0.625382 17.1752 0.367576C16.5321 0.109769 15.8451 -0.0147193 15.1543 0.00138485ZM14.9629 12.6566C13.5212 14.127 11.2084 16.4555 10.4727 17.1924C9.73693 16.4522 7.42416 14.127 5.98239 12.6566C3.82139 10.4526 1.12921 7.71027 1.13251 5.28084C1.13627 4.66474 1.26038 4.05558 1.4976 3.48895C1.73482 2.92232 2.08038 2.4096 2.5141 1.98072C2.94782 1.55185 3.46099 1.21544 4.02364 0.991134C4.58628 0.766833 5.18712 0.659142 5.79103 0.674356C8.30836 0.674356 10.1031 2.35678 10.1427 3.83732C10.1427 3.92656 10.1775 4.01215 10.2394 4.07525C10.3012 4.13835 10.3852 4.17381 10.4727 4.17381C10.5602 4.17381 10.6441 4.13835 10.7059 4.07525C10.7678 4.01215 10.8026 3.92656 10.8026 3.83732C10.8422 2.33996 12.637 0.674356 15.1543 0.674356C15.7582 0.659142 16.359 0.766833 16.9217 0.991134C17.4843 1.21544 17.9975 1.55185 18.4312 1.98072C18.8649 2.4096 19.2105 2.92232 19.4477 3.48895C19.6849 4.05558 19.809 4.66474 19.8128 5.28084C19.8161 7.71027 17.1239 10.4526 14.9629 12.6566Z" fill="#192734"/>
</svg>
