<svg width="10" height="6" viewBox="0 0 10 6" fill="currentColor" xmlns="http://www.w3.org/2000/svg">
<path d="M6.64078 0.199244C6.4654 0.415176 6.46852 0.750501 6.64462 0.967389L7.99578 2.39538L0.605953 2.39596C0.271299 2.39596 0 2.6659 0 2.99887L0.00407676 3.06917C0.0390802 3.36901 0.295203 3.60176 0.605953 3.60176L7.99639 3.60129L6.68896 4.98221C6.46984 5.20049 6.45545 5.62979 6.69165 5.85293C6.92428 6.07272 7.33721 6.03442 7.56238 5.816L9.83571 3.41297C9.94486 3.29758 10.0004 3.15713 10 2.99846C9.99408 2.84491 9.9339 2.68862 9.83576 2.5848L7.56782 0.187216C7.32215 -0.0332798 6.92711 -0.0729969 6.69304 0.143497L6.64078 0.199244Z" fill="currentColor"/>
</svg>
