<svg width="6" height="10" viewBox="0 0 6 10" fill="none" xmlns="http://www.w3.org/2000/svg">
<path d="M5.80076 6.64078C5.58482 6.4654 5.2495 6.46852 5.03261 6.64462L3.60461 7.99578L3.60404 0.605953C3.60404 0.271299 3.3341 -1.1653e-07 3.00113 -1.31085e-07L2.93083 0.00407662C2.63099 0.0390801 2.39824 0.295203 2.39824 0.605953L2.39871 7.99639L1.01779 6.68896C0.799509 6.46984 0.370207 6.45545 0.147073 6.69165C-0.0727218 6.92428 -0.0344237 7.33721 0.183995 7.56238L2.58703 9.83571C2.70242 9.94486 2.84287 10.0004 3.00154 10C3.15509 9.99408 3.31138 9.9339 3.4152 9.83576L5.81278 7.56782C6.03328 7.32215 6.073 6.92711 5.8565 6.69304L5.80076 6.64078Z" fill="#AE001A"/>
</svg>
