<svg width="40" height="39" viewBox="0 0 40 39" fill="none" xmlns="http://www.w3.org/2000/svg">
<path d="M35.3191 0.771729H4.68085C3.4401 0.773831 2.25082 1.23533 1.37347 2.05515C0.496132 2.87498 0.00224977 3.98629 0 5.14569V25.8226C0.00224977 26.982 0.496132 28.0933 1.37347 28.9131C2.25082 29.733 3.4401 30.1945 4.68085 30.1966H7.65957V36.9563C7.66105 37.1826 7.73042 37.4038 7.85981 37.595C7.9892 37.7862 8.17341 37.9397 8.39149 38.0379C8.56296 38.1095 8.74836 38.1474 8.93617 38.1492C9.24677 38.157 9.54962 38.058 9.78723 37.8709L19.5745 30.1966H35.3191C36.5599 30.1945 37.7492 29.733 38.6265 28.9131C39.5039 28.0933 39.9977 26.982 40 25.8226V5.14569C39.9977 3.98629 39.5039 2.87498 38.6265 2.05515C37.7492 1.23533 36.5599 0.773831 35.3191 0.771729ZM37.4468 25.8226C37.4468 26.3499 37.2226 26.8556 36.8236 27.2285C36.4246 27.6013 35.8834 27.8108 35.3191 27.8108H19.1489C18.8389 27.8066 18.5374 27.9052 18.2979 28.0891L15.6255 30.1966L10.2128 34.4115V29.0037C10.2128 28.6873 10.0783 28.3839 9.83886 28.1602C9.59945 27.9365 9.27474 27.8108 8.93617 27.8108H4.68085C4.11656 27.8108 3.57538 27.6013 3.17637 27.2285C2.77735 26.8556 2.55319 26.3499 2.55319 25.8226V5.14569C2.55319 4.6184 2.77735 4.1127 3.17637 3.73985C3.57538 3.36699 4.11656 3.15753 4.68085 3.15753H35.3191C35.8834 3.15753 36.4246 3.36699 36.8236 3.73985C37.2226 4.1127 37.4468 4.6184 37.4468 5.14569V25.8226Z" fill="#F3F3F3"/>
<path d="M20.9622 19.8933C20.8238 19.765 20.6589 19.6639 20.4775 19.5961C20.296 19.5282 20.1017 19.4949 19.906 19.4983C19.7065 19.4944 19.5082 19.5274 19.3225 19.5952C19.1368 19.663 18.9675 19.7643 18.8243 19.8933C18.6815 20.021 18.5685 20.1745 18.4923 20.3444C18.4161 20.5143 18.3784 20.6968 18.3814 20.8808C18.3705 21.0718 18.4062 21.2627 18.4859 21.4391C18.5655 21.6155 18.687 21.7731 18.8414 21.8999C19.134 22.1415 19.5144 22.2713 19.906 22.2633C20.2869 22.268 20.6554 22.1381 20.9366 21.8999C21.0885 21.7716 21.2077 21.6136 21.2858 21.4374C21.3639 21.2612 21.3988 21.0711 21.3881 20.8808C21.3923 20.6981 21.3568 20.5165 21.2836 20.3468C21.2105 20.1771 21.1011 20.0229 20.9622 19.8933ZM24.3692 10.0892C23.9404 9.50882 23.3523 9.04517 22.6657 8.74619C21.8657 8.40259 20.9919 8.23239 20.1105 8.24849C19.1624 8.22792 18.2243 8.43184 17.3849 8.841C16.662 9.18718 16.0486 9.70171 15.6047 10.3341C15.2281 10.8656 15.0187 11.4838 15 12.1196C15.0038 12.2683 15.0396 12.4148 15.1054 12.5505C15.1713 12.6862 15.2657 12.8083 15.3833 12.9096C15.5081 13.0332 15.6603 13.1303 15.8293 13.1944C15.9984 13.2585 16.1803 13.288 16.3628 13.2809C16.9931 13.2809 17.4189 12.9254 17.6489 12.2302C17.8154 11.6749 18.1056 11.1582 18.5007 10.7133C18.7175 10.5286 18.9732 10.3876 19.2518 10.2992C19.5303 10.2109 19.8256 10.177 20.119 10.1998C20.6822 10.1815 21.2314 10.3655 21.6521 10.7133C21.8406 10.8703 21.9906 11.063 22.092 11.2783C22.1933 11.4936 22.2438 11.7266 22.2398 11.9615C22.2449 12.2081 22.1772 12.4513 22.0439 12.6647C21.915 12.8816 21.7545 13.0809 21.5669 13.2572C21.3796 13.431 21.0729 13.6943 20.6471 14.0472C20.2423 14.3682 19.8557 14.7084 19.4887 15.0663C19.1951 15.3592 18.9613 15.6992 18.7988 16.0696C18.619 16.4973 18.5322 16.9537 18.5432 17.4126C18.5284 17.5832 18.5517 17.7548 18.6118 17.9166C18.6719 18.0784 18.7675 18.2269 18.8925 18.3528C19.1234 18.5527 19.4283 18.663 19.7442 18.6609C19.8904 18.6705 20.0371 18.6532 20.176 18.6098C20.3149 18.5664 20.4431 18.498 20.5532 18.4083C20.6633 18.3187 20.7532 18.2096 20.8175 18.0875C20.8819 17.9654 20.9195 17.8327 20.9281 17.697C21.0048 17.3968 21.0559 17.1835 21.09 17.065C21.133 16.9425 21.1871 16.8236 21.2518 16.7095C21.328 16.5617 21.4286 16.4258 21.5499 16.3066C21.6862 16.1644 21.8736 15.9906 22.095 15.801C22.9468 15.1216 23.4834 14.6397 23.7985 14.3553C24.1376 14.0556 24.4249 13.7092 24.6502 13.3283C24.8891 12.9045 25.0091 12.4318 24.9995 11.9536C25.0012 11.3025 24.7969 10.6652 24.4118 10.1208L24.3692 10.0892Z" fill="#F3F3F3"/>
</svg>
