<svg width="12" height="12" viewBox="0 0 12 12" fill="none" xmlns="http://www.w3.org/2000/svg">
<mask id="path-1-inside-1" fill="white">
<path d="M11.9835 4.53482C11.9441 4.40843 11.8407 4.31814 11.7151 4.29751L7.9714 3.74033L6.28675 0.193465C6.23011 0.0748065 6.11435 0 5.98874 0C5.86313 0 5.74737 0.0748065 5.69072 0.196045L4.02824 3.75322L0.284567 4.3362C0.158957 4.35684 0.0555131 4.44712 0.016106 4.57352C-0.023301 4.69991 0.0111801 4.83921 0.102309 4.92949L2.81893 7.68702L2.19088 11.5924C2.16872 11.724 2.22044 11.8555 2.32388 11.9329C2.38053 11.9768 2.44949 12 2.51845 12C2.57264 12 2.62436 11.9871 2.67362 11.9587L6.01583 10.104L9.36789 11.9381C9.41715 11.9639 9.46887 11.9768 9.52059 11.9768C9.70285 11.9768 9.85309 11.8194 9.85309 11.6285C9.85309 11.6002 9.85063 11.5744 9.84324 11.5486L9.19549 7.66638L11.8949 4.89338C11.9909 4.80052 12.0229 4.66122 11.9835 4.53482ZM8.60931 7.29751C8.53049 7.37747 8.49601 7.49355 8.51571 7.60705L9.07973 10.994L6.16853 9.40241C6.07248 9.34824 5.95672 9.35082 5.8582 9.40241L2.95686 11.012L3.50117 7.61995C3.51841 7.50645 3.48393 7.39295 3.40511 7.31298L1.05054 4.91917L4.29916 4.41359C4.40753 4.39553 4.50112 4.32588 4.54792 4.2227L5.9912 1.135L7.45419 4.21496C7.50345 4.31814 7.59704 4.38779 7.70541 4.40585L10.9565 4.8908L8.60931 7.29751Z"/>
</mask>
<path d="M11.9835 4.53482C11.9441 4.40843 11.8407 4.31814 11.7151 4.29751L7.9714 3.74033L6.28675 0.193465C6.23011 0.0748065 6.11435 0 5.98874 0C5.86313 0 5.74737 0.0748065 5.69072 0.196045L4.02824 3.75322L0.284567 4.3362C0.158957 4.35684 0.0555131 4.44712 0.016106 4.57352C-0.023301 4.69991 0.0111801 4.83921 0.102309 4.92949L2.81893 7.68702L2.19088 11.5924C2.16872 11.724 2.22044 11.8555 2.32388 11.9329C2.38053 11.9768 2.44949 12 2.51845 12C2.57264 12 2.62436 11.9871 2.67362 11.9587L6.01583 10.104L9.36789 11.9381C9.41715 11.9639 9.46887 11.9768 9.52059 11.9768C9.70285 11.9768 9.85309 11.8194 9.85309 11.6285C9.85309 11.6002 9.85063 11.5744 9.84324 11.5486L9.19549 7.66638L11.8949 4.89338C11.9909 4.80052 12.0229 4.66122 11.9835 4.53482ZM8.60931 7.29751C8.53049 7.37747 8.49601 7.49355 8.51571 7.60705L9.07973 10.994L6.16853 9.40241C6.07248 9.34824 5.95672 9.35082 5.8582 9.40241L2.95686 11.012L3.50117 7.61995C3.51841 7.50645 3.48393 7.39295 3.40511 7.31298L1.05054 4.91917L4.29916 4.41359C4.40753 4.39553 4.50112 4.32588 4.54792 4.2227L5.9912 1.135L7.45419 4.21496C7.50345 4.31814 7.59704 4.38779 7.70541 4.40585L10.9565 4.8908L8.60931 7.29751Z" fill="white"/>
<path d="M11.7151 4.29751L11.8772 3.31073L11.8697 3.30951L11.8623 3.3084L11.7151 4.29751ZM7.9714 3.74033L7.06812 4.16936L7.29685 4.65095L7.82419 4.72943L7.9714 3.74033ZM6.28675 0.193465L7.19004 -0.23557L7.18919 -0.237358L6.28675 0.193465ZM5.69072 0.196045L6.59666 0.619446L6.5967 0.619359L5.69072 0.196045ZM4.02824 3.75322L4.18211 4.74132L4.70858 4.65933L4.93418 4.17663L4.02824 3.75322ZM0.284567 4.3362L0.130693 3.34807L0.122451 3.34943L0.284567 4.3362ZM0.102309 4.92949L0.814731 4.22764L0.806114 4.2191L0.102309 4.92949ZM2.81893 7.68702L3.80625 7.84579L3.88664 7.3459L3.5313 6.98521L2.81893 7.68702ZM2.19088 11.5924L3.17701 11.7586L3.1782 11.7512L2.19088 11.5924ZM2.32388 11.9329L2.93602 11.1422L2.9295 11.1371L2.92291 11.1322L2.32388 11.9329ZM2.67362 11.9587L2.1884 11.0843L2.1814 11.0882L2.17447 11.0922L2.67362 11.9587ZM6.01583 10.104L6.49582 9.22677L6.01242 8.96228L5.53061 9.22965L6.01583 10.104ZM9.36789 11.9381L8.8879 12.8154L8.8959 12.8197L8.90398 12.824L9.36789 11.9381ZM9.84324 11.5486L8.85687 11.7132L8.86624 11.7693L8.8819 11.8239L9.84324 11.5486ZM9.19549 7.66638L8.47893 6.96885L8.1258 7.33161L8.20912 7.83096L9.19549 7.66638ZM11.8949 4.89338L11.1998 4.17443L11.1889 4.18498L11.1783 4.19585L11.8949 4.89338ZM8.60931 7.29751L9.32153 7.99948L9.32521 7.9957L8.60931 7.29751ZM8.51571 7.60705L9.50215 7.44278L9.50098 7.43601L8.51571 7.60705ZM9.07973 10.994L8.60003 11.8714L10.4038 12.8576L10.0661 10.8297L9.07973 10.994ZM6.16853 9.40241L5.67727 10.2735L5.68883 10.2798L6.16853 9.40241ZM5.8582 9.40241L5.39429 8.51652L5.38361 8.52212L5.37307 8.52796L5.8582 9.40241ZM2.95686 11.012L1.96949 10.8536L1.64365 12.8842L3.44199 11.8865L2.95686 11.012ZM3.50117 7.61995L4.48857 7.77839L4.48983 7.77013L3.50117 7.61995ZM3.40511 7.31298L2.69219 8.01422L2.6929 8.01494L3.40511 7.31298ZM1.05054 4.91917L0.89676 3.93107L-1.02921 4.23081L0.337616 5.62041L1.05054 4.91917ZM4.29916 4.41359L4.45295 5.40175L4.46352 5.39999L4.29916 4.41359ZM4.54792 4.2227L3.64194 3.79922L3.6372 3.80966L4.54792 4.2227ZM5.9912 1.135L6.89448 0.705938L5.98393 -1.21099L5.08528 0.711543L5.9912 1.135ZM7.45419 4.21496L6.55091 4.64402L6.55175 4.64578L7.45419 4.21496ZM7.70541 4.40585L7.54105 5.39225L7.54945 5.39365L7.55787 5.3949L7.70541 4.40585ZM10.9565 4.8908L11.6724 5.589L13.0367 4.19004L11.104 3.90174L10.9565 4.8908ZM12.9382 4.23718C12.7892 3.75935 12.386 3.39432 11.8772 3.31073L11.553 5.28428C11.2954 5.24196 11.099 5.0575 11.0289 4.83246L12.9382 4.23718ZM11.8623 3.3084L8.11862 2.75122L7.82419 4.72943L11.5679 5.28661L11.8623 3.3084ZM8.87469 3.31129L7.19004 -0.235569L5.38346 0.6225L7.06812 4.16936L8.87469 3.31129ZM7.18919 -0.237358C6.97511 -0.685784 6.51924 -1 5.98874 -1V1C5.70945 1 5.4851 0.835397 5.38432 0.624288L7.18919 -0.237358ZM5.98874 -1C5.45483 -1 4.99717 -0.681917 4.78474 -0.227269L6.5967 0.619359C6.49757 0.83153 6.27142 1 5.98874 1V-1ZM4.78478 -0.227357L3.12229 3.32982L4.93418 4.17663L6.59666 0.619446L4.78478 -0.227357ZM3.87437 2.76513L0.130698 3.34811L0.438435 5.32429L4.18211 4.74132L3.87437 2.76513ZM0.122451 3.34943C-0.386331 3.43301 -0.789598 3.79805 -0.938572 4.27588L0.970784 4.87116C0.900624 5.09619 0.704244 5.28066 0.446682 5.32297L0.122451 3.34943ZM-0.938572 4.27588C-1.08684 4.75144 -0.963313 5.28142 -0.601496 5.63988L0.806114 4.2191C0.985673 4.39699 1.04024 4.64839 0.970784 4.87116L-0.938572 4.27588ZM-0.610061 5.6313L2.10656 8.38882L3.5313 6.98521L0.814679 4.22769L-0.610061 5.6313ZM1.83162 7.52824L1.20357 11.4337L3.1782 11.7512L3.80625 7.84579L1.83162 7.52824ZM1.20478 11.4263C1.12242 11.9151 1.3118 12.4247 1.72486 12.7337L2.92291 11.1322C3.12907 11.2864 3.21501 11.5329 3.17698 11.7586L1.20478 11.4263ZM1.71174 12.7237C1.94286 12.9026 2.22694 13 2.51845 13V11C2.67204 11 2.8182 11.051 2.93602 11.1422L1.71174 12.7237ZM2.51845 13C2.74057 13 2.96551 12.9446 3.17277 12.8252L2.17447 11.0922C2.28321 11.0296 2.40471 11 2.51845 11V13ZM3.15884 12.8331L6.50105 10.9784L5.53061 9.22965L2.1884 11.0843L3.15884 12.8331ZM5.53584 10.9813L8.8879 12.8154L9.84788 11.0608L6.49582 9.22677L5.53584 10.9813ZM8.90398 12.824C9.08899 12.9209 9.29914 12.9768 9.52059 12.9768V10.9768C9.63861 10.9768 9.74531 11.0069 9.8318 11.0522L8.90398 12.824ZM9.52059 12.9768C10.2982 12.9768 10.8531 12.3276 10.8531 11.6285H8.85309C8.85309 11.3112 9.10748 10.9768 9.52059 10.9768V12.9768ZM10.8531 11.6285C10.8531 11.5414 10.8456 11.4165 10.8046 11.2732L8.8819 11.8239C8.85564 11.7323 8.85309 11.6589 8.85309 11.6285H10.8531ZM10.8296 11.384L10.1819 7.5018L8.20912 7.83096L8.85687 11.7132L10.8296 11.384ZM9.91204 8.36391L12.6114 5.59091L11.1783 4.19585L8.47893 6.96885L9.91204 8.36391ZM12.5899 5.61233C12.9712 5.24369 13.0843 4.70584 12.9382 4.23718L11.0289 4.83246C10.9616 4.61661 11.0106 4.35734 11.1998 4.17443L12.5899 5.61233ZM7.89709 6.59555C7.58041 6.91685 7.45835 7.36277 7.53045 7.77809L9.50098 7.43601C9.53367 7.62434 9.48057 7.83809 9.32152 7.99947L7.89709 6.59555ZM7.5293 7.77132L8.09331 11.1582L10.0661 10.8297L9.50213 7.44279L7.5293 7.77132ZM9.55943 10.1165L6.64823 8.52497L5.68883 10.2798L8.60003 11.8714L9.55943 10.1165ZM6.65975 8.53137C6.24044 8.2949 5.76351 8.32318 5.39429 8.51652L6.32211 10.2883C6.14993 10.3785 5.90452 10.4016 5.67731 10.2734L6.65975 8.53137ZM5.37307 8.52796L2.47173 10.1376L3.44199 11.8865L6.34333 10.2768L5.37307 8.52796ZM3.94423 11.1705L4.48854 7.77839L2.5138 7.46151L1.96949 10.8536L3.94423 11.1705ZM4.48983 7.77013C4.55155 7.36381 4.43059 6.92886 4.11733 6.61102L2.6929 8.01494C2.53727 7.85704 2.48527 7.64909 2.51251 7.46977L4.48983 7.77013ZM4.11804 6.61174L1.76347 4.21793L0.337616 5.62041L2.69219 8.01422L4.11804 6.61174ZM1.20432 5.90728L4.45294 5.40169L4.14538 3.42548L0.89676 3.93107L1.20432 5.90728ZM4.46352 5.39999C4.89388 5.32828 5.27133 5.04871 5.45863 4.63574L3.6372 3.80966C3.73091 3.60305 3.92118 3.46278 4.1348 3.42718L4.46352 5.39999ZM5.45384 4.64615L6.89712 1.55845L5.08528 0.711543L3.642 3.79925L5.45384 4.64615ZM5.08792 1.56405L6.55091 4.64402L8.35746 3.7859L6.89448 0.705938L5.08792 1.56405ZM6.55175 4.64578C6.74045 5.04105 7.10804 5.3201 7.54105 5.39225L7.86976 3.41945C8.08603 3.45548 8.26644 3.59524 8.35662 3.78414L6.55175 4.64578ZM7.55787 5.3949L10.809 5.87986L11.104 3.90174L7.85294 3.41679L7.55787 5.3949ZM10.2406 4.1926L7.8934 6.59931L9.32521 7.9957L11.6724 5.589L10.2406 4.1926Z" fill="#5D6368" mask="url(#path-1-inside-1)"/>
</svg>
