<svg width="12" height="12" viewBox="0 0 12 12" fill="none" xmlns="http://www.w3.org/2000/svg">
<path d="M11.9835 4.53482C11.9441 4.40843 11.8407 4.31814 11.7151 4.29751L7.9714 3.74033L6.28675 0.193465C6.23011 0.0748065 6.11435 0 5.98874 0C5.86313 0 5.74737 0.0748065 5.69072 0.196045L4.02824 3.75322L0.284567 4.3362C0.158957 4.35684 0.0555131 4.44712 0.016106 4.57352C-0.023301 4.69991 0.0111801 4.83921 0.102309 4.92949L2.81893 7.68702L2.19088 11.5924C2.16872 11.724 2.22044 11.8555 2.32388 11.9329C2.38053 11.9768 2.44949 12 2.51845 12C2.57264 12 2.62436 11.9871 2.67362 11.9587L6.01583 10.104L9.36789 11.9381C9.41715 11.9639 9.46887 11.9768 9.52059 11.9768C9.70285 11.9768 9.85309 11.8194 9.85309 11.6285C9.85309 11.6002 9.85063 11.5744 9.84324 11.5486L9.19549 7.66638L11.8949 4.89338C11.9909 4.80052 12.0229 4.66122 11.9835 4.53482ZM8.60931 7.29751C8.53049 7.37747 8.49601 7.49355 8.51571 7.60705L9.07973 10.994L6.16853 9.40241C6.07248 9.34824 5.95672 9.35082 5.8582 9.40241L2.95686 11.012L3.50117 7.61995C3.51841 7.50645 3.48393 7.39295 3.40511 7.31298L1.05054 4.91917L4.29916 4.41359C4.40753 4.39553 4.50112 4.32588 4.54792 4.2227L5.9912 1.135L7.45419 4.21496C7.50345 4.31814 7.59704 4.38779 7.70541 4.40585L10.9565 4.8908L8.60931 7.29751Z" fill="white"/>
</svg>
