<svg width="11" height="20" viewBox="0 0 11 20" fill="none" xmlns="http://www.w3.org/2000/svg">
<path d="M2.15044 20H7.86726C9.0531 20 10.0089 19.0442 10.0089 17.8584V5C10.0089 3.81416 9.0531 2.85841 7.86726 2.85841H3.90266H1.43363V0.716815C1.43363 0.318585 1.11504 0 0.716815 0C0.318585 0 0 0.318585 0 0.716815V5V5.14159V17.8584C0.00884956 19.0354 0.964602 20 2.15044 20ZM1.43363 5.14159V5C1.43363 4.60177 1.75221 4.28319 2.15044 4.28319H7.86726V4.29204C8.26549 4.29204 8.58407 4.61062 8.58407 5.00885V10H1.44248V5.14159H1.43363Z" fill="white"/>
</svg>
