<svg width="20" height="17" viewBox="0 0 20 17" fill="none" xmlns="http://www.w3.org/2000/svg">
<path d="M14.6816 0.00126884C12.415 0.00126884 10.6928 1.07723 10 2.34742C9.31046 1.08031 7.58496 0.00126884 5.31838 0.00126884C4.62757 -0.0134863 3.94054 0.100574 3.29744 0.336783C2.65434 0.572993 2.06808 0.926613 1.57292 1.37698C1.07775 1.82734 0.683619 2.36542 0.413549 2.95975C0.143479 3.55409 0.00289161 4.19277 2.91521e-06 4.83846C-0.00329633 7.32026 2.79446 9.94388 5.05114 12.0311C6.516 13.3999 8.87826 15.5765 9.5744 16.2208L9.76905 16.3996C9.79961 16.4288 9.83605 16.4519 9.87626 16.4678C9.91647 16.4837 9.95965 16.492 10.0033 16.4921C10.0467 16.4924 10.0898 16.4846 10.13 16.4692C10.1702 16.4539 10.2067 16.4313 10.2375 16.4027L10.4355 16.2208C11.1316 15.5765 13.4939 13.3999 14.9588 12.0311C17.2055 9.94388 20.0033 7.32026 20 4.83846C19.9971 4.19277 19.8565 3.55409 19.5865 2.95975C19.3164 2.36542 18.9222 1.82734 18.4271 1.37698C17.9319 0.926613 17.3457 0.572993 16.7026 0.336783C16.0595 0.100574 15.3724 -0.0134863 14.6816 0.00126884Z" fill="#AE001A"/>
</svg>
