<svg width="19" height="19" viewBox="0 0 19 19" fill="none" xmlns="http://www.w3.org/2000/svg">
<path d="M12.6382 11.8221H6.30714C3.07955 11.8221 0.472656 14.4314 0.472656 17.6618V18.4383C0.472656 18.6247 0.596794 18.749 0.783001 18.749C0.969208 18.749 1.09335 18.6247 1.09335 18.4383V17.6618C1.09335 14.773 3.42093 12.4434 6.30714 12.4434H12.6382C15.5244 12.4434 17.852 14.773 17.852 17.6618V18.6558C17.852 18.8422 17.9761 18.9664 18.1623 18.9664C18.3485 18.9664 18.4727 18.8422 18.4727 18.6558V17.6618C18.4727 14.4314 15.8658 11.8221 12.6382 11.8221Z" fill="#192734"/>
<path d="M9.47266 9.95852C12.2037 9.95852 14.4382 7.72205 14.4382 4.9886C14.4382 2.25514 12.2037 0.0186768 9.47266 0.0186768C6.74159 0.0186768 4.50708 2.25514 4.50708 4.9886C4.50708 7.72205 6.74159 9.95852 9.47266 9.95852ZM9.47266 0.639917C11.8623 0.639917 13.8175 2.59682 13.8175 4.9886C13.8175 7.38037 11.8623 9.33728 9.47266 9.33728C7.08297 9.33728 5.12778 7.38037 5.12778 4.9886C5.12778 2.59682 7.08297 0.639917 9.47266 0.639917Z" fill="#192734"/>
</svg>
