<svg width="87" height="96" viewBox="0 0 87 96" fill="none" xmlns="http://www.w3.org/2000/svg">
<path d="M87.0214 26.9357C87.0214 9.48891 71.4895 1.19104 51.2767 0.339976C43.8299 0.12721 21.4895 0.127197 21.4895 0.127197H0.638428V14.5953V95.4464H21.4895V53.7442C21.4895 53.7442 44.681 53.957 52.3405 53.7442C73.4044 53.3187 87.0214 46.0847 87.0214 26.9357ZM48.9363 39.9144C42.1278 40.1272 21.4895 39.9144 21.4895 39.9144V14.5953C21.4895 14.5953 43.4043 14.1698 50.8512 14.5953C61.4895 15.4464 67.2342 20.9783 67.2342 26.9357C67.2342 35.2336 60.8512 39.4889 48.9363 39.9144Z" fill="#F4F4F5"/>
</svg>
