<svg width="166" height="100" viewBox="0 0 166 100" fill="none" xmlns="http://www.w3.org/2000/svg">
<path d="M105.979 0C78.7446 0 55.7658 16.1702 48.7445 37.0213H28.9573V2.12766H8.95728V37.0213H0.659424V51.9149H8.95728V97.6596H28.9573V51.9149H46.4041C47.0424 78.9362 73.2126 99.5745 105.766 99.5745C138.745 99.5745 165.766 78.2979 165.766 50.8511C165.553 23.4042 138.957 0 105.979 0ZM105.766 84.0425C84.0637 84.0425 66.8296 69.7872 66.8296 50.8511C66.8296 31.9149 84.2765 15.5319 105.979 15.5319C127.468 15.5319 145.127 31.9149 145.127 50.8511C145.127 70 127.255 84.0425 105.766 84.0425Z" fill="#F4F4F5"/>
</svg>
