<svg width="1437" height="" viewBox="0 0 1437 100" fill="none" xmlns="http://www.w3.org/2000/svg">
<path d="M59.7873 0C26.8085 0 0 22.3404 0 50C0 77.6596 26.8085 100 59.7873 100C92.766 100 119.362 77.6596 119.362 50C119.574 22.3404 92.766 0 59.7873 0ZM59.7873 84.2553C38.2979 84.2553 20.6383 68.9362 20.6383 49.7872C20.6383 30.8511 38.0851 15.3191 59.7873 15.3191C81.4894 15.3191 98.9362 30.6383 98.9362 49.7872C98.9362 68.9362 81.4894 84.2553 59.7873 84.2553Z" fill="#F4F4F5"/>
<path d="M129.574 2.1272V97.4464H150.638V16.1698H200.212V97.4464H220.851V2.1272H129.574Z" fill="#F4F4F5"/>
<path d="M265.745 16.3825V97.4464H286.596V16.3825H321.702V2.1272H230.638V16.3825H265.745Z" fill="#F4F4F5"/>
<path d="M400.212 2.1272L350 48.7229V2.1272H329.148V97.4464H350V71.9144L400.851 24.6804V97.4464H422.127V2.1272H400.212Z" fill="#F4F4F5"/>
<path d="M612.128 2.1272H584.681L568.723 36.1698H549.574V50.6378H561.915L539.787 97.4464H560.213L581.915 50.6378H612.34L632.979 97.4464H655.532L612.128 2.1272ZM588.723 36.1698L597.447 17.4463L605.745 36.1698H588.723Z" fill="#F4F4F5"/>
<path d="M492.765 40.2123C490.212 38.0846 485.744 37.6591 481.489 36.8081L521.063 2.33998H497.659L458.936 36.1698V2.1272H438.084V97.4464H458.936V50.4251H467.233C467.233 50.4251 475.531 50.2123 478.723 51.9144C481.276 53.4038 486.17 59.3612 486.17 59.3612L514.893 97.2336H538.936C538.936 97.4464 499.574 45.957 492.765 40.2123Z" fill="#F4F4F5"/>
<path d="M1281.06 0C1248.09 0 1221.49 22.3404 1221.49 50C1221.49 77.6596 1248.3 100 1281.06 100C1314.04 100 1340.85 77.6596 1340.85 50C1340.85 22.3404 1314.04 0 1281.06 0ZM1281.06 84.2553C1259.36 84.2553 1241.91 68.9362 1241.91 49.7872C1241.91 30.8511 1259.36 15.3191 1281.06 15.3191C1302.77 15.3191 1320.21 30.6383 1320.21 49.7872C1320.21 68.9362 1302.77 84.2553 1281.06 84.2553Z" fill="#F4F4F5"/>
<path d="M1208.94 74.2553C1198.94 80.8511 1184.68 85.7447 1172.34 85.7447C1150.64 85.7447 1134.68 68.9362 1134.68 49.7872C1134.68 30.6383 1150.85 14.0426 1172.34 14.0426C1184.04 14.0426 1192.55 15.3191 1208.72 24.2553L1218.09 12.1277C1204.68 3.40425 1190 0 1172.13 0C1139.15 0 1113.62 22.3404 1113.62 50C1113.62 77.6596 1139.15 100 1172.13 100C1190 100 1204.04 95.9575 1218.51 85.7447L1208.94 74.2553Z" fill="#F4F4F5"/>
<path d="M942.979 0C915.745 0 892.766 16.1702 885.745 37.0213H865.957V2.12766H845.957V37.0213H837.659V51.9149H845.957V97.6596H865.957V51.9149H883.404C884.042 78.9362 910.213 99.5745 942.766 99.5745C975.745 99.5745 1002.77 78.2979 1002.77 50.8511C1002.55 23.4042 975.957 0 942.979 0ZM942.766 84.0425C921.064 84.0425 903.83 69.7872 903.83 50.8511C903.83 31.9149 921.276 15.5319 942.979 15.5319C964.468 15.5319 982.127 31.9149 982.127 50.8511C982.127 70 964.255 84.0425 942.766 84.0425Z" fill="#F4F4F5"/>
<path d="M803.404 2.1272H749.149V16.808H759.575L731.702 97.6591H752.341L780.213 16.808H803.404V97.6591H824.468V16.808V2.1272H803.404Z" fill="#F4F4F5"/>
<path d="M1437.02 28.9357C1437.02 11.4889 1421.49 3.19104 1401.28 2.33998C1393.83 2.12721 1371.49 2.1272 1371.49 2.1272H1350.64V16.5953V97.4464H1371.49V55.7442C1371.49 55.7442 1394.68 55.957 1402.34 55.7442C1423.4 55.3187 1437.02 48.0847 1437.02 28.9357ZM1398.94 41.9144C1392.13 42.1272 1371.49 41.9144 1371.49 41.9144V16.5953C1371.49 16.5953 1393.4 16.1698 1400.85 16.5953C1411.49 17.4464 1417.23 22.9783 1417.23 28.9357C1417.23 37.2336 1410.85 41.4889 1398.94 41.9144Z" fill="#F4F4F5"/>
<path d="M1072.55 40.2123C1070 38.0846 1065.53 37.6591 1061.28 36.8081L1100.85 2.1272H1077.66L1038.72 36.1698V2.1272H1017.87V97.4464H1038.72V50.4251H1047.02C1047.02 50.4251 1055.32 50.2123 1058.51 51.9144C1061.06 53.4038 1065.96 59.3612 1065.96 59.3612L1094.68 97.2336H1118.72C1118.72 97.4464 1079.36 45.957 1072.55 40.2123Z" fill="#F4F4F5"/>
<path d="M708.936 49.7873C708.936 58.2979 701.915 65.3192 693.405 65.3192C684.894 65.3192 677.873 58.2979 677.873 49.7873C677.873 41.2766 684.894 34.2554 693.405 34.2554C702.128 34.2554 708.936 41.2766 708.936 49.7873Z" fill="#F4F4F5"/>
</svg>
